# File created by Blade
# Date/Time:  Tue Jan 27 19:18:50 2015
#---------------------------------------------------------
:version 1.10
:name HOM
:units
  mass 1.0
  length 1.000000
  angle deg
:documentation
     Acclaim Skeleton File
:root
   axis xyz
   order TX TY TZ RX RY RZ
   position 0.000000 0.000000 0.000000
   orientation 0 0 0
:bonedata
   begin
      id 1
      name Spine_dum
      direction 0.000000 1.000000 0.000000
      length 6.116652
      axis 0.0 0.0 0.0 xyz
   end
   begin
      id 2
      name LeftUpLeg_dum
      direction 1.000000 0.000000 0.000000
      length 4.711765
      axis 0.0 0.0 0.0 xyz
   end
   begin
      id 3
      name RightUpLeg_dum
      direction -1.000000 0.000000 0.000000
      length 4.711765
      axis 0.0 0.0 0.0 xyz
   end
   begin
      id 4
      name Spine
      direction 0.000000 1.000000 0.000000
      length 0.000000
      axis 0.0 0.0 0.0 xyz
      dof rx ry rz
   end
   begin
      id 5
      name Spine_dum1
      direction 0.000000 1.000000 0.000000
      length 15.225563
      axis 0.0 0.0 0.0 xyz
   end
   begin
      id 6
      name Spine_dum2
      direction 0.000000 1.000000 0.000000
      length 8.977654
      axis 0.0 0.0 0.0 xyz
   end
   begin
      id 7
      name Spine_dum3
      direction 0.000000 1.000000 0.000000
      length 8.977654
      axis 0.0 0.0 0.0 xyz
   end
   begin
      id 8
      name Head
      direction 0.000000 1.000000 0.000000
      length 4.527550
      axis 0.0 0.0 0.0 xyz
      dof rx ry rz
   end
   begin
      id 9
      name LeftShoulder
      direction 1.000000 0.000000 0.000000
      length 7.110130
      axis 0.0 0.0 -90.0 xyz
      dof rx ry rz
   end
   begin
      id 10
      name LeftArm
      direction 1.000000 0.000000 0.000000
      length 10.398341
      axis 0.0 0.0 -90.0 xyz
      dof rx ry rz
   end
   begin
      id 11
      name LeftForeArm
      direction 1.000000 0.000000 0.000000
      length 8.888997
      axis 0.0 0.0 -90.0 xyz
      dof ry rz rx
   end
   begin
      id 12
      name LeftHand
      direction 0.000000 0.000000 0.000000
      length 0.000000
      axis 0.0 0.0 -90.0 xyz
      dof rx ry rz
   end
   begin
      id 13
      name LeftHand_dum1
      direction 0.000000 0.000000 0.000000
      length 0.000000
      axis 0.0 0.0 -90.0 xyz
   end
   begin
      id 14
      name LeftHand_dum2
      direction 1.000000 0.000000 0.000000
      length 3.937000
      axis 0.0 0.0 -90.0 xyz
   end
   begin
      id 15
      name LeftHandThumb1
      direction 0.000000 0.000000 1.000000
      length 3.937000
      axis 0.0 0.0 -90.0 xyz
      dof rx rz ry
   end
   begin
      id 16
      name RightShoulder
      direction -1.000000 0.000000 0.000000
      length 7.110130
      axis 0.0 0.0 90.0 xyz
      dof rx ry rz
   end
   begin
      id 17
      name RightArm
      direction -1.000000 0.000000 0.000000
      length 10.398341
      axis 0.0 0.0 90.0 xyz
      dof rx ry rz
   end
   begin
      id 18
      name RightForeArm
      direction -1.000000 0.000000 0.000000
      length 8.888997
      axis 0.0 0.0 90.0 xyz
      dof ry rz rx
   end
   begin
      id 19
      name RightHand
      direction 0.000000 0.000000 0.000000
      length 0.000000
      axis 0.0 0.0 90.0 xyz
      dof rx ry rz
   end
   begin
      id 20
      name RightHand_dum1
      direction 0.000000 0.000000 0.000000
      length 0.000000
      axis 0.0 0.0 90.0 xyz
   end
   begin
      id 21
      name RightHand_dum2
      direction -1.000000 0.000000 0.000000
      length 3.937000
      axis 0.0 0.0 90.0 xyz
   end
   begin
      id 22
      name RightHandThumb1
      direction 0.000000 0.000000 1.000000
      length 3.937000
      axis 0.0 0.0 90.0 xyz
      dof rx rz ry
   end
   begin
      id 23
      name LeftUpLeg
      direction 0.000000 -1.000000 0.000000
      length 15.510451
      axis 0.0 0.0 0.0 xyz
      dof rx ry rz
   end
   begin
      id 24
      name LeftLeg
      direction 0.000000 -1.000000 0.000000
      length 14.858061
      axis 0.0 0.0 0.0 xyz
      dof rx ry rz
   end
   begin
      id 25
      name LeftFoot
      direction 0.000000 -0.258819 0.965926
      length 5.128852
      axis 15.0 0.0 0.0 xyz
      dof rx ry rz
   end
   begin
      id 26
      name LeftToeBase
      direction 0.000000 0.000000 1.000000
      length 2.952750
      axis 0.0 0.0 0.0 xyz
      dof rx ry rz
   end
   begin
      id 27
      name RightUpLeg
      direction 0.000000 -1.000000 0.000000
      length 15.510451
      axis 0.0 0.0 0.0 xyz
      dof rx ry rz
   end
   begin
      id 28
      name RightLeg
      direction 0.000000 -1.000000 0.000000
      length 14.858061
      axis 0.0 0.0 0.0 xyz
      dof rx ry rz
   end
   begin
      id 29
      name RightFoot
      direction 0.000000 -0.258819 0.965926
      length 5.128852
      axis 15.0 0.0 0.0 xyz
      dof rx ry rz
   end
   begin
      id 30
      name RightToeBase
      direction 0.000000 0.000000 1.000000
      length 2.952750
      axis 0.0 0.0 0.0 xyz
      dof rx ry rz
   end
:hierarchy
   begin
      root Spine_dum LeftUpLeg_dum RightUpLeg_dum
      Spine_dum Spine
      LeftUpLeg_dum LeftUpLeg
      RightUpLeg_dum RightUpLeg
      Spine Spine_dum1 Spine_dum2 Spine_dum3
      Spine_dum1 Head
      Spine_dum2 LeftShoulder
      Spine_dum3 RightShoulder
      LeftShoulder LeftArm
      LeftArm LeftForeArm
      LeftForeArm LeftHand
      LeftHand LeftHand_dum1 LeftHand_dum2
      LeftHand_dum1 LeftHandThumb1
      RightShoulder RightArm
      RightArm RightForeArm
      RightForeArm RightHand
      RightHand RightHand_dum1 RightHand_dum2
      RightHand_dum1 RightHandThumb1
      LeftUpLeg LeftLeg
      LeftLeg LeftFoot
      LeftFoot LeftToeBase
      RightUpLeg RightLeg
      RightLeg RightFoot
      RightFoot RightToeBase
   end

# File created by Blade
# Date/Time:  Tue Jan 27 19:18:41 2015
# Frame Rate: 120.000 fps
#------------------------------------------------------
:FULLY-SPECIFIED
:DEGREES
1
root 4.179888 32.357342 0.690707 -4.968789 -0.911080 0.287427
Spine 3.097561 4.050015 -0.003184
Head 2.083774 -4.598328 2.940004
LeftShoulder -14.120612 -6.494106 42.380872
LeftArm 16.027090 -12.651926 -43.543938
LeftForeArm 19.786483 -0.000000 -10.716307
LeftHand 9.810448 -0.000000 -4.731613
LeftHandThumb1 -26.253704 0.000000 33.147579
RightShoulder -19.216963 -18.112831 -39.472511
RightArm 17.697769 15.588839 42.300073
RightForeArm -19.014297 -0.000000 5.972544
RightHand 14.828145 -0.000000 8.996564
RightHandThumb1 -24.326973 -0.000000 -32.862282
LeftUpLeg 11.122402 -0.315545 -1.184710
LeftLeg 2.485706 -0.000000 -0.000000
LeftFoot -18.509392 14.634188 -22.881810
LeftToeBase 16.407434 -0.000000 -0.000000
RightUpLeg 9.158492 -6.662131 0.857000
RightLeg 1.929518 -0.000000 -0.000000
RightFoot -12.425910 -13.530108 13.624962
RightToeBase 10.414633 -0.000000 -0.000000
2
root 4.180370 32.357191 0.689629 -4.967601 -0.898681 0.293330
Spine 3.096847 4.052188 -0.009019
Head 2.092690 -4.606958 2.935686
LeftShoulder -14.113509 -6.487225 42.377570
LeftArm 16.042209 -12.645648 -43.551601
LeftForeArm 19.804960 -0.000000 -10.718555
LeftHand 9.805037 0.000000 -4.733489
LeftHandThumb1 -26.253704 0.000000 33.147579
RightShoulder -19.226687 -18.111922 -39.477591
RightArm 17.698754 15.553929 42.296021
RightForeArm -18.985168 -0.000000 5.969455
RightHand 14.865558 0.000000 8.979045
RightHandThumb1 -24.326973 -0.000000 -32.862282
LeftUpLeg 11.116733 -0.344203 -1.195463
LeftLeg 2.487294 -0.000000 -0.000000
LeftFoot -18.517668 14.643666 -22.912351
LeftToeBase 16.451953 -0.000000 -0.000000
RightUpLeg 9.151094 -6.665174 0.851441
RightLeg 1.939299 -0.000000 -0.000000
RightFoot -12.434336 -13.536731 13.637517
RightToeBase 10.388907 -0.000000 -0.000000
3
root 4.179870 32.357160 0.689342 -4.968900 -0.887885 0.296584
Spine 3.096993 4.056560 -0.012623
Head 2.104242 -4.599140 2.928445
LeftShoulder -14.107441 -6.497810 42.378571
LeftArm 16.064894 -12.698340 -43.569628
LeftForeArm 19.901506 -0.000000 -10.731265
LeftHand 9.699145 0.000000 -4.734649
LeftHandThumb1 -26.253704 0.000000 33.147579
RightShoulder -19.228459 -18.126226 -39.481631
RightArm 17.693897 15.575629 42.310901
RightForeArm -18.967332 -0.000000 5.987777
RightHand 14.860972 -0.000000 8.984011
RightHandThumb1 -24.326973 -0.000000 -32.862282
LeftUpLeg 11.113838 -0.334785 -1.194267
LeftLeg 2.492160 -0.000000 -0.000000
LeftFoot -18.509119 14.628641 -22.898533
LeftToeBase 16.384077 -0.000000 -0.000000
RightUpLeg 9.151240 -6.656651 0.852282
RightLeg 1.944052 -0.000000 -0.000000
RightFoot -12.453291 -13.563266 13.636367
RightToeBase 10.423544 -0.000000 -0.000000
4
root 4.179206 32.357024 0.688770 -4.969826 -0.877052 0.297869
Spine 3.094949 4.050138 -0.017358
Head 2.121030 -4.597463 2.930687
LeftShoulder -14.093187 -6.521949 42.389548
LeftArm 16.018755 -12.640387 -43.557364
LeftForeArm 19.870355 -0.000000 -10.718952
LeftHand 9.791354 -0.000000 -4.741163
LeftHandThumb1 -26.253704 0.000000 33.147579
RightShoulder -19.217046 -18.131968 -39.484243
RightArm 17.699490 15.579617 42.312849
RightForeArm -18.944904 -0.000000 5.971722
RightHand 14.835140 0.000000 8.934340
RightHandThumb1 -24.326973 -0.000000 -32.862282
LeftUpLeg 11.109795 -0.330225 -1.190825
LeftLeg 2.496302 -0.000000 -0.000000
LeftFoot -18.506347 14.606990 -22.902243
LeftToeBase 16.389401 -0.000000 -0.000000
RightUpLeg 9.152818 -6.663689 0.850875
RightLeg 1.945511 -0.000000 -0.000000
RightFoot -12.451944 -13.555097 13.642038
RightToeBase 10.355881 -0.000000 -0.000000
5
root 4.178595 32.357083 0.688240 -4.972262 -0.863197 0.297997
Spine 3.099218 4.045414 -0.014346
Head 2.124222 -4.584779 2.913987
LeftShoulder -14.091512 -6.532221 42.385208
LeftArm 16.036999 -12.652120 -43.562797
LeftForeArm 19.925951 0.000000 -10.732877
LeftHand 9.711808 -0.000000 -4.747293
LeftHandThumb1 -26.253704 0.000000 33.147579
RightShoulder -19.222523 -18.124457 -39.491223
RightArm 17.702051 15.538026 42.300709
RightForeArm -18.909411 -0.000000 5.974811
RightHand 14.744741 -0.000000 8.838002
RightHandThumb1 -24.326973 -0.000000 -32.862282
LeftUpLeg 11.102543 -0.337714 -1.191474
LeftLeg 2.509030 -0.000000 -0.000000
LeftFoot -18.506118 14.610822 -22.901617
LeftToeBase 16.441462 -0.000000 -0.000000
RightUpLeg 9.156318 -6.668494 0.851677
RightLeg 1.946767 -0.000000 -0.000000
RightFoot -12.463283 -13.557789 13.650148
RightToeBase 10.400770 -0.000000 -0.000000
6
root 4.178090 32.357217 0.688178 -4.972511 -0.852467 0.301601
Spine 3.095275 4.034243 -0.019206
Head 2.145003 -4.573344 2.910362
LeftShoulder -14.109943 -6.422480 42.350203
LeftArm 16.153379 -12.700286 -43.572463
LeftForeArm 19.938440 0.000000 -10.756232
LeftHand 9.699282 -0.000000 -4.741275
LeftHandThumb1 -26.253704 0.000000 33.147579
RightShoulder -19.214145 -18.133117 -39.487286
RightArm 17.719802 15.554787 42.290933
RightForeArm -18.840382 -0.000000 5.953730
RightHand 14.708219 0.000000 8.896191
RightHandThumb1 -24.326973 -0.000000 -32.862282
LeftUpLeg 11.100428 -0.328803 -1.190743
LeftLeg 2.509577 -0.000000 -0.000000
LeftFoot -18.499858 14.593233 -22.903759
LeftToeBase 16.449431 -0.000000 -0.000000
RightUpLeg 9.158177 -6.678379 0.849007
RightLeg 1.943446 -0.000000 -0.000000
RightFoot -12.461614 -13.572914 13.633677
RightToeBase 10.411587 -0.000000 -0.000000
7
root 4.177196 32.357289 0.688109 -4.975732 -0.843211 0.306112
Spine 3.095716 4.035777 -0.023386
Head 2.159581 -4.570366 2.895731
LeftShoulder -14.093495 -6.448647 42.341542
LeftArm 16.129760 -12.686537 -43.550727
LeftForeArm 19.974698 -0.000000 -10.725042
LeftHand 9.624632 -0.000000 -4.832825
LeftHandThumb1 -26.253704 0.000000 33.147579
RightShoulder -19.193557 -18.097434 -39.485833
RightArm 17.673218 15.509504 42.241793
RightForeArm -18.759717 -0.000000 5.986973
RightHand 14.512580 -0.000000 8.824453
RightHandThumb1 -24.326973 -0.000000 -32.862282
LeftUpLeg 11.106022 -0.358590 -1.197487
LeftLeg 2.503852 -0.000000 -0.000000
LeftFoot -18.494485 14.610921 -22.899390
LeftToeBase 16.396371 -0.000000 -0.000000
RightUpLeg 9.157426 -6.703474 0.842008
RightLeg 1.955862 -0.000000 -0.000000
RightFoot -12.472996 -13.556291 13.632417
RightToeBase 10.390244 -0.000000 -0.000000
8
root 4.178047 32.357137 0.688638 -4.983263 -0.844258 0.314028
Spine 3.101683 4.034743 -0.029400
Head 2.170634 -4.556349 2.890483
LeftShoulder -14.086746 -6.521694 42.377723
LeftArm 16.045855 -12.631723 -43.551913
LeftForeArm 19.982579 -0.000000 -10.704821
LeftHand 9.628176 -0.000000 -4.860618
LeftHandThumb1 -26.253704 0.000000 33.147579
RightShoulder -19.184664 -18.096892 -39.500307
RightArm 17.679631 15.596049 42.277716
RightForeArm -18.858953 -0.000000 5.959950
RightHand 14.587501 -0.000000 8.862341
RightHandThumb1 -24.326973 -0.000000 -32.862282
LeftUpLeg 11.112659 -0.314002 -1.197982
LeftLeg 2.505059 -0.000000 -0.000000
LeftFoot -18.473253 14.578717 -22.885357
LeftToeBase 16.386596 -0.000000 -0.000000
RightUpLeg 9.166104 -6.692554 0.833266
RightLeg 1.952747 -0.000000 -0.000000
RightFoot -12.474508 -13.555211 13.642451
RightToeBase 10.390534 -0.000000 -0.000000
9
root 4.177675 32.357053 0.688587 -4.980951 -0.835353 0.312028
Spine 3.096739 4.031191 -0.023340
Head 2.181060 -4.553555 2.873864
LeftShoulder -14.086463 -6.519208 42.370492
LeftArm 16.051454 -12.643291 -43.549226
LeftForeArm 20.004561 -0.000000 -10.697205
LeftHand 9.617391 -0.000000 -4.865317
LeftHandThumb1 -26.253704 0.000000 33.147579
RightShoulder -19.190466 -18.102460 -39.507892
RightArm 17.697262 15.680020 42.306972
RightForeArm -18.962571 -0.000000 5.940796
RightHand 14.657329 -0.000000 8.873614
RightHandThumb1 -24.326973 -0.000000 -32.862282
LeftUpLeg 11.110121 -0.314398 -1.194386
LeftLeg 2.503177 -0.000000 -0.000000
LeftFoot -18.465473 14.578547 -22.859827
LeftToeBase 16.426128 -0.000000 -0.000000
RightUpLeg 9.165475 -6.706539 0.833540
RightLeg 1.953261 -0.000000 -0.000000
RightFoot -12.473642 -13.547646 13.656597
RightToeBase 10.415296 -0.000000 -0.000000
